<?xml version="1.0" encoding="UTF-8" standalone="no"?>
<svg
   xmlns:dc="http://purl.org/dc/elements/1.1/"
   xmlns:cc="http://creativecommons.org/ns#"
   xmlns:rdf="http://www.w3.org/1999/02/22-rdf-syntax-ns#"
   xmlns:svg="http://www.w3.org/2000/svg"
   xmlns="http://www.w3.org/2000/svg"
   viewBox="0 0 326.66666 70.666664"
   height="70.666664"
   width="326.66666"
   xml:space="preserve"
   id="svg2"
   version="1.1"><metadata
     id="metadata8"><rdf:RDF><cc:Work
         rdf:about=""><dc:format>image/svg+xml</dc:format><dc:type
           rdf:resource="http://purl.org/dc/dcmitype/StillImage" /></cc:Work></rdf:RDF></metadata><defs
     id="defs6" /><g
     transform="matrix(1.3333333,0,0,-1.3333333,0,70.666667)"
     id="g10"><g
       transform="scale(0.1)"
       id="g12"><path
         id="path14"
         style="fill:#99398a;fill-opacity:1;fill-rule:evenodd;stroke:none"
         d="m 178.551,430.07 c 0,30.739 -7.653,53.789 -23.039,71.051 C 138.238,518.391 117.109,528 90.2305,528 61.4492,528 40.3086,518.391 23.0508,501.121 7.69922,483.859 0,460.809 0,430.07 V 161.281 C 0,94.0898 26.8789,48 82.5781,21.1211 109.449,7.69141 136.328,-0.0117188 165.121,-0.0117188 H 222.73 C 209.301,15.3789 197.77,32.6484 190.078,49.9102 182.379,69.1289 178.551,88.3086 178.551,109.449 V 430.07 M 819.84,476.16 C 775.66,510.73 710.391,528 627.852,528 545.27,528 480,510.73 435.859,476.16 383.98,435.852 359.02,376.32 359.02,295.699 V 97.9219 c 0,-30.7031 7.699,-53.793 23.05,-71.0508 17.309,-17.26954 38.399,-26.8828188 67.231,-26.8828188 26.828,0 47.969,9.6132788 65.269,26.8828188 15.352,17.2578 23.051,40.3477 23.051,71.0508 V 295.699 c 0,28.781 7.649,51.832 21.09,69.102 15.348,17.301 38.398,26.871 69.141,26.871 30.699,0 53.75,-9.57 69.097,-26.871 13.442,-17.27 21.141,-40.321 21.141,-69.102 V 97.9219 c 0,-30.7031 7.691,-53.793 23.039,-71.0508 17.269,-17.26954 38.402,-26.8828188 65.281,-26.8828188 28.789,0 49.918,9.6132788 67.18,26.8828188 15.359,17.2578 23.051,40.3477 23.051,71.0508 V 295.699 c 0,80.621 -24.961,140.153 -76.801,180.461 z M 1920,501.121 c -17.27,17.27 -38.4,26.879 -67.19,26.879 -26.87,0 -48.01,-9.609 -65.27,-26.879 -15.39,-17.262 -23.09,-40.312 -23.09,-71.051 V 234.25 c 0,-30.699 -7.65,-53.75 -21.09,-71.051 -15.35,-17.269 -38.4,-26.879 -69.1,-26.879 -30.74,0 -53.79,9.61 -69.14,26.879 -13.44,17.301 -21.14,40.352 -21.14,71.051 v 195.82 c 0,30.739 -7.69,53.789 -23,71.051 -17.31,17.27 -38.4,26.879 -65.28,26.879 -28.82,0 -49.96,-9.609 -67.22,-26.879 -15.35,-17.262 -23.05,-40.312 -23.05,-71.051 V 234.25 c 0,-30.699 -7.7,-53.75 -21.13,-71.051 -15.32,-17.269 -38.36,-26.879 -69.1,-26.879 -30.75,0 -53.75,9.61 -69.15,26.879 -13.43,17.301 -21.09,40.352 -21.09,71.051 v 195.82 c 0,30.739 -7.69,53.789 -23.05,71.051 -17.26,17.27 -38.39,26.879 -65.27,26.879 -28.79,0 -49.92,-9.609 -67.19,-26.879 -15.39,-17.262 -23.04,-40.312 -23.04,-71.051 V 232.34 c 0,-80.668 24.96,-140.1994 76.79,-180.5119 44.18,-34.5273 109.46,-51.8398188 192,-51.8398188 74.88,0 134.41,15.3906188 178.55,44.1836188 46.09,-28.793 105.63,-44.1836188 180.51,-44.1836188 82.54,0 147.81,17.3125188 191.99,51.8398188 51.84,40.3125 76.8,99.8439 76.8,180.5119 v 197.73 c 0,30.739 -7.7,53.789 -23.05,71.051 z m 203.52,-82.57 V 97.9219 c 0,-30.7031 7.69,-53.793 23.04,-71.0508 17.27,-17.26954 38.4,-26.8828188 65.28,-26.8828188 28.79,0 49.92,9.6132788 65.27,26.8828188 17.3,17.2578 24.96,40.3477 24.96,71.0508 V 366.711 c 0,67.23 -26.87,113.277 -82.54,140.199 -17.26,9.57 -36.52,15.352 -57.62,17.262 L 2136.95,528 h -57.57 c 13.43,-15.352 24.92,-32.621 32.61,-49.922 7.7,-19.18 11.53,-38.398 11.53,-59.527 z m 238.08,96.008 h -19.18 v -59.528 c 0,-3.832 -1.95,-5.742 -7.69,-5.742 h -1.92 c -3.83,0 -5.78,1.91 -5.78,5.742 v 59.528 h -19.18 c -3.83,0 -5.78,1.921 -5.78,5.781 v 1.922 c 0,3.828 1.91,5.738 5.78,5.738 h 53.75 c 3.83,0 5.78,-1.91 5.78,-5.738 v -1.922 c -0.04,-3.86 -1.95,-5.781 -5.78,-5.781 z m 92.15,5.781 v -65.309 c 0,-3.832 -1.91,-5.742 -5.74,-5.742 h -1.92 c -1.95,0 -3.82,1.91 -3.82,5.742 v 53.789 l -17.31,-40.351 -1.91,-1.918 -5.78,-1.91 -3.83,1.91 -1.92,1.918 -17.26,40.351 v -53.789 c 0,-3.832 -1.96,-5.742 -5.78,-5.742 h -1.92 c -3.83,0 -5.78,1.91 -5.78,5.742 v 65.309 c 0,5.75 1.95,7.66 7.7,7.66 h 5.78 l 5.74,-1.91 1.91,-3.828 15.36,-40.313 17.3,40.313 c 1.88,1.91 1.88,3.828 1.88,3.828 l 5.82,1.91 h 5.74 l 3.83,-1.91 z" /></g></g></svg>