<?xml version="1.0"?>
<svg xmlns="http://www.w3.org/2000/svg" xmlns:xlink="http://www.w3.org/1999/xlink" xmlns:svgjs="http://svgjs.com/svgjs" version="1.1" width="512" height="512" x="0" y="0" viewBox="0 0 74 74" style="enable-background:new 0 0 512 512" xml:space="preserve" class=""><g><path xmlns="http://www.w3.org/2000/svg" d="m45.73 4h-6.23a1 1 0 0 1 0-2h6.23a1 1 0 0 1 0 2z" fill="#6c63ff" data-original="#000000" style="" class=""/><path xmlns="http://www.w3.org/2000/svg" d="m60.54 65.89h-47.08a5.276 5.276 0 0 1 -5.27-5.27v-53.35a5.276 5.276 0 0 1 5.27-5.27h9.81a1 1 0 0 1 0 2h-9.81a3.274 3.274 0 0 0 -3.27 3.27v53.35a3.274 3.274 0 0 0 3.27 3.27h47.08a3.274 3.274 0 0 0 3.27-3.27v-53.35a3.274 3.274 0 0 0 -3.27-3.27h-9.81a1 1 0 0 1 0-2h9.81a5.276 5.276 0 0 1 5.27 5.27v53.35a5.276 5.276 0 0 1 -5.27 5.27z" fill="#6c63ff" data-original="#000000" style="" class=""/><path xmlns="http://www.w3.org/2000/svg" d="m34.5 4h-6.23a1 1 0 0 1 0-2h6.23a1 1 0 0 1 0 2z" fill="#6c63ff" data-original="#000000" style="" class=""/><path xmlns="http://www.w3.org/2000/svg" d="m57.328 72h-6.861a2.07 2.07 0 0 1 -2.067-2.067v-5.04a1 1 0 0 1 1-1h9a1 1 0 0 1 1 1v5.04a2.069 2.069 0 0 1 -2.072 2.067zm-6.928-6.107v4.04l6.928.067.054-4.107z" fill="#6c63ff" data-original="#000000" style="" class=""/><path xmlns="http://www.w3.org/2000/svg" d="m23.533 72h-6.861a2.069 2.069 0 0 1 -2.067-2.067v-5.04a1 1 0 0 1 1-1h9a1 1 0 0 1 1 1v5.04a2.07 2.07 0 0 1 -2.072 2.067zm-6.928-6.107v4.04l6.928.067.053-4.107z" fill="#6c63ff" data-original="#000000" style="" class=""/><path xmlns="http://www.w3.org/2000/svg" d="m64.805 47.635h-55.605a1 1 0 0 1 -1-1v-31.887a1 1 0 0 1 1-1h55.61a1 1 0 0 1 1 1v31.887a1 1 0 0 1 -1.005 1zm-54.61-2h53.61v-29.887h-53.605z" fill="#6c63ff" data-original="#000000" style="" class=""/><path xmlns="http://www.w3.org/2000/svg" d="m53.111 60.684a4.992 4.992 0 1 1 4.989-4.992 5 5 0 0 1 -4.989 4.992zm0-7.983a2.992 2.992 0 1 0 2.989 2.991 2.995 2.995 0 0 0 -2.989-2.992z" fill="#6c63ff" data-original="#000000" style="" class=""/><path xmlns="http://www.w3.org/2000/svg" d="m20.889 60.684a4.992 4.992 0 1 1 4.991-4.992 5 5 0 0 1 -4.991 4.992zm0-7.983a2.992 2.992 0 1 0 2.991 2.991 2.995 2.995 0 0 0 -2.991-2.992z" fill="#6c63ff" data-original="#000000" style="" class=""/><path xmlns="http://www.w3.org/2000/svg" d="m46.9 9.664h-19.8a1 1 0 0 1 0-2h19.8a1 1 0 0 1 0 2z" fill="#6c63ff" data-original="#000000" style="" class=""/><path xmlns="http://www.w3.org/2000/svg" d="m68.223 31.908h-3.418a1 1 0 1 1 0-2h3.418a1.008 1.008 0 0 0 1.007-1.008v-9.461a1.008 1.008 0 0 0 -1.007-1.006h-3.418a1 1 0 0 1 0-2h3.418a3.01 3.01 0 0 1 3.007 3.006v9.461a3.01 3.01 0 0 1 -3.007 3.008z" fill="#6c63ff" data-original="#000000" style="" class=""/><path xmlns="http://www.w3.org/2000/svg" d="m37 47.635a1 1 0 0 1 -1-1v-31.887a1 1 0 1 1 2 0v31.887a1 1 0 0 1 -1 1z" fill="#6c63ff" data-original="#000000" style="" class=""/><path xmlns="http://www.w3.org/2000/svg" d="m44.237 54.348h-14.474a1 1 0 0 1 0-2h14.474a1 1 0 1 1 0 2z" fill="#6c63ff" data-original="#000000" style="" class=""/><path xmlns="http://www.w3.org/2000/svg" d="m44.237 59.068h-14.474a1 1 0 0 1 0-2h14.474a1 1 0 1 1 0 2z" fill="#6c63ff" data-original="#000000" style="" class=""/><path xmlns="http://www.w3.org/2000/svg" d="m9.2 31.908h-3.423a3.01 3.01 0 0 1 -3.007-3.008v-9.461a3.01 3.01 0 0 1 3.007-3.006h3.423a1 1 0 0 1 0 2h-3.423a1.008 1.008 0 0 0 -1.007 1.006v9.461a1.008 1.008 0 0 0 1.007 1.006h3.423a1 1 0 0 1 0 2z" fill="#6c63ff" data-original="#000000" style="" class=""/></g></svg>
