<svg xmlns="http://www.w3.org/2000/svg" width="807.453" height="499.98" viewBox="0 0 807.453 499.98">
  <defs>
    <style>
      .cls-1 {
        fill: #e6e6e6;
      }

      .cls-2 {
        fill: #f2f2f2;
      }

      .cls-3 {
        fill: #e4fbff;
      }

      .cls-4 {
        fill: #2f2e41;
      }

      .cls-5 {
        fill: #f1f1f1;
      }

      .cls-6 {
        fill: #fff;
      }

      .cls-7 {
        fill: #e5e5e5;
      }

      .cls-8 {
        fill: #cbcbcb;
      }

      .cls-9 {
        fill: #3f3d56;
      }
    </style>
  </defs>
  <g id="Groupe_13" data-name="Groupe 13" transform="translate(0 -0.004)">
    <path id="Path_461" data-name="Path 461" class="cls-1" d="M252.308,663.166a22.728,22.728,0,0,0,21.947-3.866c7.687-6.452,10.1-17.081,12.058-26.924l5.8-29.112-12.143,8.362c-8.733,6.013-17.662,12.219-23.709,20.929s-8.686,20.6-3.828,30.024" transform="translate(-196.274 -200.008)"/>
    <path id="Path_462" data-name="Path 462" class="cls-2" d="M253.347,698.411c-1.229-8.953-2.493-18.02-1.631-27.069.766-8.036,3.217-15.885,8.209-22.321a37.13,37.13,0,0,1,9.527-8.633c.953-.6,1.829.909.881,1.507a35.3,35.3,0,0,0-13.963,16.847c-3.04,7.732-3.528,16.161-3,24.374.317,4.967.988,9.9,1.665,14.83a.9.9,0,0,1-.61,1.074.878.878,0,0,1-1.074-.61Z" transform="translate(-196.274 -200.008)"/>
    <path id="Tracé_198" data-name="Tracé 198" class="cls-3" d="M496.874,505.526a6.942,6.942,0,0,1-2.851.671l-91.607,2.514a14.38,14.38,0,0,1-.625-28.752l91.607-2.514a7.007,7.007,0,0,1,7.151,6.846l.321,14.756a7.017,7.017,0,0,1-4,6.48Z" transform="translate(-196.274 -200.008)"/>
    <path id="Tracé_199" data-name="Tracé 199" class="cls-3" d="M379.332,698.6h-14.76a7.008,7.008,0,0,1-7-7V568.584a7.008,7.008,0,0,1,7-7h14.76a7.008,7.008,0,0,1,7,7V691.6a7.008,7.008,0,0,1-7,7Z" transform="translate(-196.274 -200.008)"/>
    <path id="Tracé_200" data-name="Tracé 200" class="cls-3" d="M418.524,698.6H403.765a7.008,7.008,0,0,1-7-7V568.584a7.008,7.008,0,0,1,7-7h14.76a7.008,7.008,0,0,1,7,7V691.6a7.008,7.008,0,0,1-7,7Z" transform="translate(-196.274 -200.008)"/>
    <circle id="Ellipse_30" data-name="Ellipse 30" class="cls-3" cx="51" cy="51" r="51" transform="translate(145.716 131.697)"/>
    <path id="Tracé_201" data-name="Tracé 201" class="cls-4" d="M410.3,605.205h-36.69a43.277,43.277,0,0,1-37.56-65.057l51.309-88.87a6.5,6.5,0,0,1,11.258,0l50.276,87.081A44.564,44.564,0,0,1,410.3,605.205Z" transform="translate(-196.274 -200.008)"/>
    <path id="Tracé_202" data-name="Tracé 202" class="cls-4" d="M405.027,404.114c3.306-.092,7.42-.207,10.59-2.522a8.133,8.133,0,0,0,3.2-6.073,5.471,5.471,0,0,0-1.86-4.493c-1.656-1.4-4.073-1.727-6.678-.961l2.7-19.726L411,370.068l-3.173,23.19,1.655-.759c1.918-.88,4.552-1.328,6.188.055a3.515,3.515,0,0,1,1.153,2.9,6.147,6.147,0,0,1-2.381,4.528c-2.467,1.8-5.746,2.034-9.466,2.138Z" transform="translate(-196.274 -200.008)"/>
    <rect id="Rectangle_72" data-name="Rectangle 72" class="cls-4" width="10.772" height="2" transform="translate(226.503 172.032)"/>
    <rect id="Rectangle_73" data-name="Rectangle 73" class="cls-4" width="10.772" height="2" transform="translate(192.503 172.032)"/>
    <path id="Tracé_203" data-name="Tracé 203" class="cls-3" d="M380.994,593.8a6.942,6.942,0,0,1-.671-2.851l-2.514-91.607a14.38,14.38,0,0,1,28.752-.625l2.514,91.607a7.007,7.007,0,0,1-6.846,7.151l-14.756.321a7.016,7.016,0,0,1-6.48-4Z" transform="translate(-196.274 -200.008)"/>
    <path id="Tracé_204" data-name="Tracé 204" class="cls-4" d="M388.257,345.005c6.2,8.1,16.033,13.539,26.429,12.252,9.9-1.226,18.068-8.126,20.117-18.005a29.67,29.67,0,0,0-7.8-26.19c-7.008-7.37-17.036-11.335-26.963-12.695-18.8-2.575-38.117,4.049-52.335,16.4a64.111,64.111,0,0,0-16.692,22.375,62.724,62.724,0,0,0-5.175,27.078c.546,18.375,8.595,36.715,22.483,48.9a63.366,63.366,0,0,0,5.408,4.236c1.584,1.111,3.085-1.489,1.514-2.59-14.222-9.977-23.294-26.211-25.783-43.268a59.924,59.924,0,0,1,14.053-48.34C355,312.1,371.838,303.614,389.278,302.854c17.549-.765,39.479,7.069,42.763,26.6,1.472,8.756-1.8,17.959-9.825,22.343-8.591,4.693-19.124,2.762-26.507-3.3a30.447,30.447,0,0,1-4.863-5.011c-1.157-1.513-3.764-.02-2.59,1.514Z" transform="translate(-196.274 -200.008)"/>
    <rect id="ab2e16f2-9798-47da-b25d-769524f3c86f" class="cls-5" width="437.195" height="207.457" transform="translate(275.352 74.346) rotate(-8.22)"/>
    <rect id="bf81c03f-68cf-4889-8697-1102f95f97bb" class="cls-6" width="412.192" height="173.087" transform="translate(290.268 90.166) rotate(-8.22)"/>
    <rect id="f065dccc-d150-492a-a09f-a7f3f89523f0" class="cls-7" width="437.195" height="18.573" transform="translate(273.453 62.51) rotate(-8.22)"/>
    <circle id="bdbbf39c-df25-4682-8b85-5a6af4a1bd14" class="cls-6" cx="3.443" cy="3.443" r="3.443" transform="translate(285.233 67.901)"/>
    <circle id="abcd4292-0b1f-4102-9b5e-e8bbd87baabc" class="cls-6" cx="3.443" cy="3.443" r="3.443" transform="translate(298.164 66.033)"/>
    <circle id="a3fb731e-8b3d-41ca-96f2-91600dc0b434" class="cls-6" cx="3.443" cy="3.443" r="3.443" transform="translate(311.098 64.164)"/>
    <rect id="ab2e16f2-9798-47da-b25d-769524f3c86f-2" data-name="ab2e16f2-9798-47da-b25d-769524f3c86f" class="cls-1" width="437.195" height="207.457" transform="translate(370.258 100.183)"/>
    <rect id="bf81c03f-68cf-4889-8697-1102f95f97bb-2" data-name="bf81c03f-68cf-4889-8697-1102f95f97bb" class="cls-6" width="412.192" height="173.087" transform="translate(382.76 117.973)"/>
    <rect id="f065dccc-d150-492a-a09f-a7f3f89523f0-2" data-name="f065dccc-d150-492a-a09f-a7f3f89523f0" class="cls-8" width="437.195" height="18.573" transform="translate(370.072 88.197)"/>
    <circle id="bdbbf39c-df25-4682-8b85-5a6af4a1bd14-2" data-name="bdbbf39c-df25-4682-8b85-5a6af4a1bd14" class="cls-6" cx="3.443" cy="3.443" r="3.443" transform="translate(380.431 95.676)"/>
    <circle id="abcd4292-0b1f-4102-9b5e-e8bbd87baabc-2" data-name="abcd4292-0b1f-4102-9b5e-e8bbd87baabc" class="cls-6" cx="3.443" cy="3.443" r="3.443" transform="translate(393.497 95.676)"/>
    <circle id="a3fb731e-8b3d-41ca-96f2-91600dc0b434-2" data-name="a3fb731e-8b3d-41ca-96f2-91600dc0b434" class="cls-6" cx="3.443" cy="3.443" r="3.443" transform="translate(406.565 95.676)"/>
    <rect id="Rectangle_74" data-name="Rectangle 74" class="cls-1" width="58.052" height="4.363" transform="translate(620.277 144.289)"/>
    <rect id="Rectangle_75" data-name="Rectangle 75" class="cls-1" width="89.645" height="4.363" transform="translate(620.277 157.098)"/>
    <rect id="Rectangle_76" data-name="Rectangle 76" class="cls-1" width="73.059" height="4.363" transform="translate(621.209 169.297)"/>
    <rect id="Rectangle_77" data-name="Rectangle 77" class="cls-1" width="42.651" height="4.363" transform="translate(620.277 182.682)"/>
    <rect id="Rectangle_78" data-name="Rectangle 78" class="cls-1" width="64.371" height="4.363" transform="translate(620.277 195.757)"/>
    <rect id="Rectangle_79" data-name="Rectangle 79" class="cls-1" width="7.108" height="7.108" transform="translate(593.818 142.916)"/>
    <rect id="Rectangle_80" data-name="Rectangle 80" class="cls-1" width="7.108" height="7.108" transform="translate(593.818 155.725)"/>
    <rect id="Rectangle_81" data-name="Rectangle 81" class="cls-1" width="7.108" height="7.108" transform="translate(593.818 167.924)"/>
    <rect id="Rectangle_82" data-name="Rectangle 82" class="cls-1" width="7.108" height="7.108" transform="translate(593.818 181.31)"/>
    <rect id="Rectangle_83" data-name="Rectangle 83" class="cls-1" width="7.108" height="7.108" transform="translate(593.818 194.384)"/>
    <rect id="Rectangle_84" data-name="Rectangle 84" class="cls-1" width="58.052" height="4.363" transform="translate(620.277 208.913)"/>
    <rect id="Rectangle_85" data-name="Rectangle 85" class="cls-1" width="89.645" height="4.363" transform="translate(620.277 221.722)"/>
    <rect id="Rectangle_86" data-name="Rectangle 86" class="cls-1" width="73.059" height="4.363" transform="translate(621.209 233.921)"/>
    <rect id="Rectangle_87" data-name="Rectangle 87" class="cls-1" width="42.651" height="4.363" transform="translate(620.277 247.307)"/>
    <rect id="Rectangle_88" data-name="Rectangle 88" class="cls-1" width="64.371" height="4.363" transform="translate(620.277 260.381)"/>
    <rect id="Rectangle_89" data-name="Rectangle 89" class="cls-1" width="7.108" height="7.108" transform="translate(593.818 207.541)"/>
    <rect id="Rectangle_90" data-name="Rectangle 90" class="cls-1" width="7.108" height="7.108" transform="translate(593.818 220.35)"/>
    <rect id="Rectangle_91" data-name="Rectangle 91" class="cls-1" width="7.108" height="7.108" transform="translate(593.818 232.549)"/>
    <rect id="Rectangle_92" data-name="Rectangle 92" class="cls-1" width="7.108" height="7.108" transform="translate(593.818 245.934)"/>
    <rect id="Rectangle_93" data-name="Rectangle 93" class="cls-1" width="7.108" height="7.108" transform="translate(593.818 259.009)"/>
    <rect id="Rectangle_94" data-name="Rectangle 94" class="cls-1" width="58.052" height="4.363" transform="translate(436.63 243.139)"/>
    <rect id="Rectangle_95" data-name="Rectangle 95" class="cls-1" width="73.059" height="4.363" transform="translate(428.863 254.477)"/>
    <path id="Tracé_205" data-name="Tracé 205" class="cls-1" d="M699.661,388.106a37.919,37.919,0,0,1-55.878,33.382l-.007-.007a37.907,37.907,0,1,1,55.886-33.375Z" transform="translate(-196.274 -200.008)"/>
    <circle id="Ellipse_31" data-name="Ellipse 31" class="cls-6" cx="10.304" cy="10.304" r="10.304" transform="translate(455.372 165.649)"/>
    <path id="Tracé_206" data-name="Tracé 206" class="cls-6" d="M679.544,407.557a53.11,53.11,0,0,1-35.568-.138l-.007-.005,7.677-15.153h20.608Z" transform="translate(-196.274 -200.008)"/>
    <path id="Tracé_207" data-name="Tracé 207" class="cls-3" d="M547.864,482.193c-17.96,0-32.572-15.522-32.572-34.6s14.612-34.6,32.572-34.6,32.572,15.522,32.572,34.6S565.824,482.193,547.864,482.193Zm0-60.458c-13.14,0-23.829,11.6-23.829,25.858s10.69,25.858,23.829,25.858,23.829-11.6,23.829-25.858S561,421.735,547.864,421.735Z" transform="translate(-196.274 -200.008)"/>
    <path id="Tracé_208" data-name="Tracé 208" class="cls-9" d="M578.708,542.492H517.019A20.541,20.541,0,0,1,496.5,521.974v-60.51a14.064,14.064,0,0,1,14.048-14.048h74.631a14.064,14.064,0,0,1,14.048,14.048v60.51A20.541,20.541,0,0,1,578.708,542.492Z" transform="translate(-196.274 -200.008)"/>
    <path id="Tracé_209" data-name="Tracé 209" class="cls-6" d="M559.885,481.84a12.021,12.021,0,1,0-17.485,10.7v18.808h10.928V492.538a12.011,12.011,0,0,0,6.557-10.7Z" transform="translate(-196.274 -200.008)"/>
    <path id="Tracé_210" data-name="Tracé 210" class="cls-9" d="M578.274,699.992h-381a1,1,0,1,1,0-2h381a1,1,0,0,1,0,2Z" transform="translate(-196.274 -200.008)"/>
  </g>
</svg>
